<svg width="376" height="247" viewBox="0 0 376 247" fill="none" xmlns="http://www.w3.org/2000/svg">
<path d="M369.042 246.075H6.97484C5.26006 246.074 3.61557 245.393 2.40304 244.181C1.19051 242.968 0.509227 241.323 0.509033 239.609L0.509033 6.85069C0.509227 5.13591 1.19051 3.49142 2.40304 2.27889C3.61557 1.06636 5.26006 0.385082 6.97484 0.384888H369.043C370.758 0.385082 372.402 1.06636 373.615 2.27889C374.827 3.49142 375.509 5.13591 375.509 6.85069V239.609C375.509 241.324 374.827 242.968 373.614 244.181C372.402 245.393 370.757 246.074 369.042 246.075Z" fill="#F5F5F5"/>
<path d="M375.508 19.285H0.509033V6.85069C0.509227 5.13591 1.19051 3.49142 2.40304 2.27889C3.61557 1.06636 5.26006 0.385082 6.97484 0.384888H369.043C370.758 0.385082 372.402 1.06636 373.615 2.27889C374.827 3.49142 375.509 5.13591 375.509 6.85069L375.508 19.285ZM0.509033 75.9816H375.508V94.881H0.509033V75.9816ZM0.509033 38.1814H375.508V57.0808H0.509033V38.1814ZM375.508 132.68H6.97484C5.26006 132.68 3.61557 131.998 2.40304 130.786C1.19051 129.573 0.509227 127.929 0.509033 126.214L0.509033 113.78H375.508V132.68ZM0.509033 189.382H375.508V208.282H0.509033V189.382ZM369.042 246.075H6.97484C5.26006 246.074 3.61557 245.393 2.40304 244.181C1.19051 242.968 0.509227 241.323 0.509033 239.609L0.509033 227.175H375.508V239.609C375.508 241.324 374.827 242.969 373.614 244.181C372.402 245.393 370.757 246.075 369.042 246.075ZM0.509033 151.582H375.508V170.481H0.509033V151.582Z" fill="#FF4B55"/>
<path d="M168.612 0.38562H6.97485C5.26014 0.38562 3.61564 1.06674 2.40309 2.27915C1.19053 3.49157 0.509227 5.13599 0.509033 6.8507L0.509033 126.213C0.509227 127.928 1.19051 129.573 2.40304 130.785C3.61558 131.998 5.26007 132.679 6.97485 132.679H168.613C170.328 132.679 171.972 131.998 173.185 130.785C174.397 129.573 175.079 127.928 175.079 126.213V6.8507C175.078 5.13598 174.397 3.49168 173.184 2.27933C171.971 1.06697 170.327 0.385814 168.612 0.38562Z" fill="#41479B"/>
<path d="M18.6651 15.2253L20.0962 19.5173L24.6204 19.5517C25.2063 19.5568 25.4487 20.3039 24.9778 20.6518L21.3384 23.3398L22.7036 27.653C22.8809 28.2111 22.2444 28.674 21.7676 28.3327L18.0872 25.7026L14.4068 28.3334C13.9299 28.674 13.2949 28.2119 13.4707 27.6537L14.836 23.3405L11.1966 20.6525C10.7256 20.3039 10.968 19.5576 11.554 19.5524L16.0781 19.518L17.5093 15.226C17.6939 14.6694 18.479 14.6694 18.6651 15.2253ZM18.6651 37.6769L20.0962 41.9689L24.6204 42.0033C25.2063 42.0085 25.4487 42.7555 24.9778 43.1034L21.3384 45.7914L22.7036 50.1047C22.8809 50.6628 22.2444 51.1257 21.7676 50.7843L18.0872 48.1542L14.4068 50.7851C13.9299 51.1257 13.2949 50.6635 13.4707 50.1054L14.836 45.7922L11.1966 43.1042C10.7256 42.7555 10.968 42.0092 11.554 42.0041L16.0781 41.9696L17.5093 37.6777C17.6939 37.1218 18.479 37.1218 18.6651 37.6769ZM18.6651 60.1286L20.0962 64.4206L24.6204 64.455C25.2063 64.4601 25.4487 65.2072 24.9778 65.5551L21.3384 68.2431L22.7036 72.5563C22.8809 73.1144 22.2444 73.5773 21.7676 73.236L18.0872 70.6059L14.4068 73.2367C13.9299 73.5773 13.2949 73.1152 13.4707 72.5571L14.836 68.2438L11.1966 65.5558C10.7256 65.2072 10.968 64.4609 11.554 64.4557L16.0781 64.4213L17.5093 60.1293C17.6939 59.5734 18.479 59.5734 18.6651 60.1286ZM18.6651 82.581L20.0962 86.873L24.6204 86.9074C25.2063 86.9125 25.4487 87.6596 24.9778 88.0075L21.3384 90.6955L22.7036 95.0087C22.8809 95.5668 22.2444 96.0297 21.7676 95.6884L18.0872 93.0583L14.4068 95.6891C13.9299 96.0297 13.2949 95.5675 13.4707 95.0094L14.836 90.6962L11.1966 88.0082C10.7256 87.6596 10.968 86.9132 11.554 86.9081L16.0781 86.8737L17.5093 82.5817C17.6939 82.0251 18.479 82.0251 18.6651 82.581ZM18.6651 105.033L20.0962 109.325L24.6204 109.359C25.2063 109.364 25.4487 110.111 24.9778 110.459L21.3384 113.147L22.7036 117.46C22.8809 118.018 22.2444 118.481 21.7676 118.14L18.0872 115.51L14.4068 118.141C13.9299 118.481 13.2949 118.019 13.4707 117.461L14.836 113.148L11.1966 110.46C10.7256 110.111 10.968 109.365 11.554 109.36L16.0781 109.325L17.5093 105.033C17.6939 104.476 18.479 104.476 18.6651 105.033ZM36.0916 26.2328L37.5227 30.5248L42.0469 30.5593C42.6328 30.5644 42.8753 31.3115 42.4043 31.6594L38.7649 34.3473L40.1301 38.6606C40.3074 39.2187 39.6709 39.6816 39.1941 39.3403L35.5137 36.7094L31.8333 39.3403C31.3565 39.6808 30.7215 39.2187 30.8972 38.6606L32.2625 34.3473L28.6231 31.6594C28.1521 31.3107 28.3945 30.5644 28.9805 30.5593L33.5047 30.5248L34.9358 26.2328C35.1196 25.6777 35.9063 25.6777 36.0916 26.2328ZM36.0916 48.6852L37.5227 52.9772L42.0469 53.0116C42.6328 53.0168 42.8753 53.7638 42.4043 54.1117L38.7649 56.7997L40.1301 61.113C40.3074 61.6711 39.6709 62.134 39.1941 61.7926L35.5137 59.1618L31.8333 61.7926C31.3565 62.1332 30.7215 61.6718 30.8972 61.113L32.2625 56.7997L28.6231 54.1117C28.1521 53.7631 28.3945 53.0168 28.9805 53.0116L33.5047 52.9772L34.9358 48.6852C35.1196 48.1293 35.9063 48.1293 36.0916 48.6852ZM36.0916 71.1369L37.5227 75.4289L42.0469 75.4633C42.6328 75.4684 42.8753 76.2155 42.4043 76.5634L38.7649 79.2514L40.1301 83.5646C40.3074 84.1227 39.6709 84.5856 39.1941 84.2443L35.5137 81.6134L31.8333 84.2443C31.3565 84.5849 30.7215 84.1227 30.8972 83.5646L32.2625 79.2514L28.6231 76.5634C28.1521 76.2148 28.3945 75.4684 28.9805 75.4633L33.5047 75.4289L34.9358 71.1369C35.1196 70.581 35.9063 70.581 36.0916 71.1369ZM36.0916 93.5885L37.5227 97.8805L42.0469 97.9149C42.6328 97.9201 42.8753 98.6671 42.4043 99.015L38.7649 101.703L40.1301 106.016C40.3074 106.574 39.6709 107.037 39.1941 106.696L35.5137 104.065L31.8333 106.696C31.3565 107.037 30.7215 106.574 30.8972 106.016L32.2625 101.703L28.6231 99.015C28.1521 98.6664 28.3945 97.9201 28.9805 97.9149L33.5047 97.8805L34.9358 93.5885C35.1196 93.0334 35.9063 93.0334 36.0916 93.5885ZM53.5181 15.2253L54.9492 19.5173L59.4734 19.5517C60.0593 19.5568 60.3018 20.3039 59.8308 20.6518L56.1914 23.3398L57.5566 27.653C57.7339 28.2111 57.0974 28.674 56.6206 28.3327L52.9402 25.7018L49.2598 28.3327C48.783 28.6733 48.148 28.2111 48.3237 27.653L49.689 23.3398L46.0496 20.6518C45.5786 20.3032 45.8211 19.5568 46.407 19.5517L50.9312 19.5173L52.3623 15.2253C52.5469 14.6694 53.3328 14.6694 53.5181 15.2253ZM53.5181 37.6769L54.9492 41.9689L59.4734 42.0033C60.0593 42.0085 60.3018 42.7555 59.8308 43.1034L56.1914 45.7914L57.5566 50.1047C57.7339 50.6628 57.0974 51.1257 56.6206 50.7843L52.9402 48.1535L49.2598 50.7843C48.783 51.1249 48.148 50.6628 48.3237 50.1047L49.689 45.7914L46.0496 43.1034C45.5786 42.7548 45.8211 42.0085 46.407 42.0033L50.9312 41.9689L52.3623 37.6769C52.5469 37.1218 53.3328 37.1218 53.5181 37.6769ZM53.5181 60.1286L54.9492 64.4206L59.4734 64.455C60.0593 64.4601 60.3018 65.2072 59.8308 65.5551L56.1914 68.2431L57.5566 72.5563C57.7339 73.1144 57.0974 73.5773 56.6206 73.236L52.9402 70.6051L49.2598 73.236C48.783 73.5766 48.148 73.1144 48.3237 72.5563L49.689 68.2431L46.0496 65.5551C45.5786 65.2065 45.8211 64.4601 46.407 64.455L50.9312 64.4206L52.3623 60.1286C52.5469 59.5734 53.3328 59.5734 53.5181 60.1286ZM53.5181 82.581L54.9492 86.873L59.4734 86.9074C60.0593 86.9125 60.3018 87.6596 59.8308 88.0075L56.1914 90.6955L57.5566 95.0087C57.7339 95.5668 57.0974 96.0297 56.6206 95.6884L52.9402 93.0575L49.2598 95.6884C48.783 96.029 48.148 95.5668 48.3237 95.0087L49.689 90.6955L46.0496 88.0075C45.5786 87.6589 45.8211 86.9125 46.407 86.9074L50.9312 86.873L52.3623 82.581C52.5469 82.0251 53.3328 82.0251 53.5181 82.581ZM53.5181 105.033L54.9492 109.325L59.4734 109.359C60.0593 109.364 60.3018 110.111 59.8308 110.459L56.1914 113.147L57.5566 117.46C57.7339 118.018 57.0974 118.481 56.6206 118.14L52.9402 115.509L49.2598 118.14C48.783 118.481 48.148 118.018 48.3237 117.46L49.689 113.147L46.0496 110.459C45.5786 110.111 45.8211 109.364 46.407 109.359L50.9312 109.325L52.3623 105.033C52.5469 104.476 53.3328 104.476 53.5181 105.033ZM70.9453 26.2328L72.3765 30.5248L76.9006 30.5593C77.4866 30.5644 77.729 31.3115 77.2581 31.6594L73.6187 34.3473L74.9839 38.6606C75.1611 39.2187 74.5247 39.6816 74.0479 39.3403L70.3674 36.7094L66.687 39.3403C66.2102 39.6808 65.5752 39.2187 65.751 38.6606L67.1162 34.3473L63.4768 31.6594C63.0059 31.3107 63.2483 30.5644 63.8342 30.5593L68.3584 30.5248L69.7896 26.2328C69.9734 25.6777 70.76 25.6777 70.9453 26.2328ZM70.9453 48.6852L72.3765 52.9772L76.9006 53.0116C77.4866 53.0168 77.729 53.7638 77.2581 54.1117L73.6187 56.7997L74.9839 61.113C75.1611 61.6711 74.5247 62.134 74.0479 61.7926L70.3674 59.1618L66.687 61.7926C66.2102 62.1332 65.5752 61.6718 65.751 61.113L67.1162 56.7997L63.4768 54.1117C63.0059 53.7631 63.2483 53.0168 63.8342 53.0116L68.3584 52.9772L69.7896 48.6852C69.9734 48.1293 70.76 48.1293 70.9453 48.6852ZM70.9453 71.1369L72.3765 75.4289L76.9006 75.4633C77.4866 75.4684 77.729 76.2155 77.2581 76.5634L73.6187 79.2514L74.9839 83.5646C75.1611 84.1227 74.5247 84.5856 74.0479 84.2443L70.3674 81.6134L66.687 84.2443C66.2102 84.5849 65.5752 84.1227 65.751 83.5646L67.1162 79.2514L63.4768 76.5634C63.0059 76.2148 63.2483 75.4684 63.8342 75.4633L68.3584 75.4289L69.7896 71.1369C69.9734 70.581 70.76 70.581 70.9453 71.1369ZM70.9453 93.5885L72.3765 97.8805L76.9006 97.9149C77.4866 97.9201 77.729 98.6671 77.2581 99.015L73.6187 101.703L74.9839 106.016C75.1611 106.574 74.5247 107.037 74.0479 106.696L70.3674 104.065L66.687 106.696C66.2102 107.037 65.5752 106.574 65.751 106.016L67.1162 101.703L63.4768 99.015C63.0059 98.6664 63.2483 97.9201 63.8342 97.9149L68.3584 97.8805L69.7896 93.5885C69.9734 93.0334 70.76 93.0334 70.9453 93.5885ZM88.3718 15.2253L89.803 19.5173L94.3271 19.5517C94.9131 19.5568 95.1555 20.3039 94.6846 20.6518L91.0452 23.3398L92.4104 27.653C92.5876 28.2111 91.9512 28.674 91.4744 28.3327L87.7932 25.7018L84.1128 28.3327C83.636 28.6733 83.001 28.2111 83.1768 27.653L84.542 23.3398L80.9026 20.6518C80.4316 20.3032 80.6741 19.5568 81.26 19.5517L85.7842 19.5173L87.2153 15.2253C87.4006 14.6694 88.1865 14.6694 88.3718 15.2253ZM88.3718 37.6769L89.803 41.9689L94.3271 42.0033C94.9131 42.0085 95.1555 42.7555 94.6846 43.1034L91.0452 45.7914L92.4104 50.1047C92.5876 50.6628 91.9512 51.1257 91.4744 50.7843L87.7932 48.1535L84.1128 50.7843C83.636 51.1249 83.001 50.6628 83.1768 50.1047L84.542 45.7914L80.9026 43.1034C80.4316 42.7548 80.6741 42.0085 81.26 42.0033L85.7842 41.9689L87.2153 37.6769C87.4006 37.1218 88.1865 37.1218 88.3718 37.6769ZM88.3718 60.1286L89.803 64.4206L94.3271 64.455C94.9131 64.4601 95.1555 65.2072 94.6846 65.5551L91.0452 68.2431L92.4104 72.5563C92.5876 73.1144 91.9512 73.5773 91.4744 73.236L87.7932 70.6051L84.1128 73.236C83.636 73.5766 83.001 73.1144 83.1768 72.5563L84.542 68.2431L80.9026 65.5551C80.4316 65.2065 80.6741 64.4601 81.26 64.455L85.7842 64.4206L87.2153 60.1286C87.4006 59.5734 88.1865 59.5734 88.3718 60.1286ZM88.3718 82.581L89.803 86.873L94.3271 86.9074C94.9131 86.9125 95.1555 87.6596 94.6846 88.0075L91.0452 90.6955L92.4104 95.0087C92.5876 95.5668 91.9512 96.0297 91.4744 95.6884L87.7932 93.0575L84.1128 95.6884C83.636 96.029 83.001 95.5668 83.1768 95.0087L84.542 90.6955L80.9026 88.0075C80.4316 87.6589 80.6741 86.9125 81.26 86.9074L85.7842 86.873L87.2153 82.581C87.4006 82.0251 88.1865 82.0251 88.3718 82.581ZM88.3718 105.033L89.803 109.325L94.3271 109.359C94.9131 109.364 95.1555 110.111 94.6846 110.459L91.0452 113.147L92.4104 117.46C92.5876 118.018 91.9512 118.481 91.4744 118.14L87.7932 115.509L84.1128 118.14C83.636 118.481 83.001 118.018 83.1768 117.46L84.542 113.147L80.9026 110.459C80.4316 110.111 80.6741 109.364 81.26 109.359L85.7842 109.325L87.2153 105.033C87.4006 104.476 88.1865 104.476 88.3718 105.033ZM105.798 26.2328L107.229 30.5248L111.754 30.5593C112.34 30.5644 112.582 31.3115 112.111 31.6594L108.472 34.3473L109.837 38.6606C110.014 39.2187 109.378 39.6816 108.901 39.3403L105.22 36.7094L101.54 39.3403C101.063 39.6808 100.428 39.2187 100.604 38.6606L101.969 34.3473L98.3298 31.6594C97.8589 31.3107 98.1013 30.5644 98.6873 30.5593L103.211 30.5248L104.643 26.2328C104.828 25.6777 105.613 25.6777 105.798 26.2328ZM105.798 48.6852L107.229 52.9772L111.754 53.0116C112.34 53.0168 112.582 53.7638 112.111 54.1117L108.472 56.7997L109.837 61.113C110.014 61.6711 109.378 62.134 108.901 61.7926L105.22 59.1618L101.54 61.7926C101.063 62.1332 100.428 61.6718 100.604 61.113L101.969 56.7997L98.3298 54.1117C97.8589 53.7631 98.1013 53.0168 98.6873 53.0116L103.211 52.9772L104.643 48.6852C104.828 48.1293 105.613 48.1293 105.798 48.6852ZM105.798 71.1369L107.229 75.4289L111.754 75.4633C112.34 75.4684 112.582 76.2155 112.111 76.5634L108.472 79.2514L109.837 83.5646C110.014 84.1227 109.378 84.5856 108.901 84.2443L105.22 81.6134L101.54 84.2443C101.063 84.5849 100.428 84.1227 100.604 83.5646L101.969 79.2514L98.3298 76.5634C97.8589 76.2148 98.1013 75.4684 98.6873 75.4633L103.211 75.4289L104.643 71.1369C104.828 70.581 105.613 70.581 105.798 71.1369ZM105.798 93.5885L107.229 97.8805L111.754 97.9149C112.34 97.9201 112.582 98.6671 112.111 99.015L108.472 101.703L109.837 106.016C110.014 106.574 109.378 107.037 108.901 106.696L105.22 104.065L101.54 106.696C101.063 107.037 100.428 106.574 100.604 106.016L101.969 101.703L98.3298 99.015C97.8589 98.6664 98.1013 97.9201 98.6873 97.9149L103.211 97.8805L104.643 93.5885C104.828 93.0334 105.613 93.0334 105.798 93.5885ZM123.226 15.2253L124.657 19.5173L129.181 19.5517C129.767 19.5568 130.009 20.3039 129.538 20.6518L125.899 23.3398L127.264 27.653C127.441 28.2111 126.805 28.674 126.328 28.3327L122.648 25.7018L118.967 28.3327C118.49 28.6733 117.855 28.2111 118.031 27.653L119.396 23.3398L115.757 20.6518C115.286 20.3032 115.529 19.5568 116.114 19.5517L120.639 19.5173L122.07 15.2253C122.254 14.6694 123.04 14.6694 123.226 15.2253ZM123.226 37.6769L124.657 41.9689L129.181 42.0033C129.767 42.0085 130.009 42.7555 129.538 43.1034L125.899 45.7914L127.264 50.1047C127.441 50.6628 126.805 51.1257 126.328 50.7843L122.648 48.1535L118.967 50.7843C118.49 51.1249 117.855 50.6628 118.031 50.1047L119.396 45.7914L115.757 43.1034C115.286 42.7548 115.529 42.0085 116.114 42.0033L120.639 41.9689L122.07 37.6769C122.254 37.1218 123.04 37.1218 123.226 37.6769ZM123.226 60.1286L124.657 64.4206L129.181 64.455C129.767 64.4601 130.009 65.2072 129.538 65.5551L125.899 68.2431L127.264 72.5563C127.441 73.1144 126.805 73.5773 126.328 73.236L122.648 70.6051L118.967 73.236C118.49 73.5766 117.855 73.1144 118.031 72.5563L119.396 68.2431L115.757 65.5551C115.286 65.2065 115.529 64.4601 116.114 64.455L120.639 64.4206L122.07 60.1286C122.254 59.5734 123.04 59.5734 123.226 60.1286ZM123.226 82.581L124.657 86.873L129.181 86.9074C129.767 86.9125 130.009 87.6596 129.538 88.0075L125.899 90.6955L127.264 95.0087C127.441 95.5668 126.805 96.0297 126.328 95.6884L122.648 93.0575L118.967 95.6884C118.49 96.029 117.855 95.5668 118.031 95.0087L119.396 90.6955L115.757 88.0075C115.286 87.6589 115.529 86.9125 116.114 86.9074L120.639 86.873L122.07 82.581C122.254 82.0251 123.04 82.0251 123.226 82.581ZM123.226 105.033L124.657 109.325L129.181 109.359C129.767 109.364 130.009 110.111 129.538 110.459L125.899 113.147L127.264 117.46C127.441 118.018 126.805 118.481 126.328 118.14L122.648 115.509L118.967 118.14C118.49 118.481 117.855 118.018 118.031 117.46L119.396 113.147L115.757 110.459C115.286 110.111 115.529 109.364 116.114 109.359L120.639 109.325L122.07 105.033C122.254 104.476 123.04 104.476 123.226 105.033ZM140.652 26.2328L142.083 30.5248L146.607 30.5593C147.193 30.5644 147.436 31.3115 146.965 31.6594L143.325 34.3473L144.691 38.6606C144.868 39.2187 144.231 39.6816 143.755 39.3403L140.074 36.7094L136.394 39.3403C135.917 39.6808 135.282 39.2187 135.458 38.6606L136.823 34.3473L133.184 31.6594C132.713 31.3107 132.955 30.5644 133.541 30.5593L138.065 30.5248L139.496 26.2328C139.681 25.6777 140.468 25.6777 140.652 26.2328ZM140.652 48.6852L142.083 52.9772L146.607 53.0116C147.193 53.0168 147.436 53.7638 146.965 54.1117L143.325 56.7997L144.691 61.113C144.868 61.6711 144.231 62.134 143.755 61.7926L140.074 59.1618L136.394 61.7926C135.917 62.1332 135.282 61.6718 135.458 61.113L136.823 56.7997L133.184 54.1117C132.713 53.7631 132.955 53.0168 133.541 53.0116L138.065 52.9772L139.496 48.6852C139.681 48.1293 140.468 48.1293 140.652 48.6852ZM140.652 71.1369L142.083 75.4289L146.607 75.4633C147.193 75.4684 147.436 76.2155 146.965 76.5634L143.325 79.2514L144.691 83.5646C144.868 84.1227 144.231 84.5856 143.755 84.2443L140.074 81.6134L136.394 84.2443C135.917 84.5849 135.282 84.1227 135.458 83.5646L136.823 79.2514L133.184 76.5634C132.713 76.2148 132.955 75.4684 133.541 75.4633L138.065 75.4289L139.496 71.1369C139.681 70.581 140.468 70.581 140.652 71.1369ZM140.652 93.5885L142.083 97.8805L146.607 97.9149C147.193 97.9201 147.436 98.6671 146.965 99.015L143.325 101.703L144.691 106.016C144.868 106.574 144.231 107.037 143.755 106.696L140.074 104.065L136.394 106.696C135.917 107.037 135.282 106.574 135.458 106.016L136.823 101.703L133.184 99.015C132.713 98.6664 132.955 97.9201 133.541 97.9149L138.065 97.8805L139.496 93.5885C139.681 93.0334 140.468 93.0334 140.652 93.5885ZM158.079 15.2253L159.51 19.5173L164.035 19.5517C164.621 19.5568 164.863 20.3039 164.392 20.6518L160.753 23.3398L162.118 27.653C162.295 28.2111 161.659 28.674 161.182 28.3327L157.501 25.7018L153.821 28.3327C153.344 28.6733 152.709 28.2111 152.885 27.653L154.25 23.3398L150.611 20.6518C150.14 20.3032 150.382 19.5568 150.968 19.5517L155.492 19.5173L156.924 15.2253C157.108 14.6694 157.893 14.6694 158.079 15.2253ZM158.079 37.6769L159.51 41.9689L164.035 42.0033C164.621 42.0085 164.863 42.7555 164.392 43.1034L160.753 45.7914L162.118 50.1047C162.295 50.6628 161.659 51.1257 161.182 50.7843L157.501 48.1535L153.821 50.7843C153.344 51.1249 152.709 50.6628 152.885 50.1047L154.25 45.7914L150.611 43.1034C150.14 42.7548 150.382 42.0085 150.968 42.0033L155.492 41.9689L156.924 37.6769C157.108 37.1218 157.893 37.1218 158.079 37.6769ZM158.079 60.1286L159.51 64.4206L164.035 64.455C164.621 64.4601 164.863 65.2072 164.392 65.5551L160.753 68.2431L162.118 72.5563C162.295 73.1144 161.659 73.5773 161.182 73.236L157.501 70.6051L153.821 73.236C153.344 73.5766 152.709 73.1144 152.885 72.5563L154.25 68.2431L150.611 65.5551C150.14 65.2065 150.382 64.4601 150.968 64.455L155.492 64.4206L156.924 60.1286C157.108 59.5734 157.893 59.5734 158.079 60.1286ZM158.079 82.581L159.51 86.873L164.035 86.9074C164.621 86.9125 164.863 87.6596 164.392 88.0075L160.753 90.6955L162.118 95.0087C162.295 95.5668 161.659 96.0297 161.182 95.6884L157.501 93.0575L153.821 95.6884C153.344 96.029 152.709 95.5668 152.885 95.0087L154.25 90.6955L150.611 88.0075C150.14 87.6589 150.382 86.9125 150.968 86.9074L155.492 86.873L156.924 82.581C157.108 82.0251 157.893 82.0251 158.079 82.581ZM158.079 105.033L159.51 109.325L164.035 109.359C164.621 109.364 164.863 110.111 164.392 110.459L160.753 113.147L162.118 117.46C162.295 118.018 161.659 118.481 161.182 118.14L157.501 115.509L153.821 118.14C153.344 118.481 152.709 118.018 152.885 117.46L154.25 113.147L150.611 110.459C150.14 110.111 150.382 109.364 150.968 109.359L155.492 109.325L156.924 105.033C157.108 104.476 157.893 104.476 158.079 105.033Z" fill="#F5F5F5"/>
</svg>
