<svg width="376" height="251" viewBox="0 0 376 251" fill="none" xmlns="http://www.w3.org/2000/svg">
<path d="M0.509033 250.012H375.509V0.00610352H0.509033V250.012Z" fill="#009B3A"/>
<path d="M46.9678 125L188 215.055L329.032 125L188 34.9446L46.9678 125Z" fill="#FEDF00"/>
<path d="M247.473 125C247.473 92.1495 220.85 65.5271 188 65.5271C155.149 65.5271 128.527 92.1495 128.527 125C128.527 157.851 155.149 184.473 188 184.473C220.85 184.473 247.473 157.851 247.473 125Z" fill="#002776"/>
<mask id="mask0_44_136" style="mask-type:luminance" maskUnits="userSpaceOnUse" x="128" y="65" width="120" height="120">
<path d="M247.473 125C247.473 92.1675 220.832 65.5271 188 65.5271C155.167 65.5271 128.527 92.1675 128.527 125C128.527 157.833 155.167 184.473 188 184.473C220.832 184.473 247.473 157.833 247.473 125Z" fill="white"/>
</mask>
<g mask="url(#mask0_44_136)">
<path d="M9.59912 243.946C9.59912 164.187 74.2741 99.5116 154.033 99.5116C233.793 99.5116 298.468 164.187 298.468 243.946H289.971C289.971 168.885 229.095 108.008 154.033 108.008C78.9722 108.008 18.0953 168.885 18.0953 243.946H9.59912Z" fill="white"/>
</g>
<path d="M154.015 106.604C155.419 106.424 156.391 105.038 156.193 103.49C155.995 101.942 154.717 100.826 153.313 100.988C151.909 101.168 150.937 102.554 151.135 104.102C151.333 105.65 152.611 106.766 154.015 106.604ZM153.889 105.56C154.717 105.452 155.275 104.588 155.149 103.616C155.023 102.644 154.267 101.924 153.439 102.032C152.611 102.14 152.053 103.004 152.179 103.976C152.305 104.948 153.061 105.668 153.889 105.56Z" fill="#009B3A"/>
<path d="M156.283 106.442C156.229 105.632 156.103 103.868 154.897 103.94L153.367 104.048C155.149 103.922 155.275 105.704 155.329 106.514" fill="black"/>
<path d="M151.477 106.64L154.141 106.586C155.473 106.568 156.553 105.452 156.517 104.12L156.499 103.31C156.481 101.978 155.365 100.898 154.033 100.934L151.369 100.988L151.459 106.658L151.477 106.64ZM152.503 105.578L154.033 105.56C154.879 105.542 155.563 104.84 155.545 103.994V103.508C155.527 102.662 154.825 101.978 153.979 101.996L152.449 102.014L152.503 105.578Z" fill="#009B3A"/>
<path d="M151.477 106.514L156.571 106.694L156.607 105.632L152.485 105.488L152.539 104.03L155.761 104.156L155.797 103.184L152.557 103.058L152.611 101.924L156.481 102.068L156.517 101.024L151.675 100.844L151.477 106.514Z" fill="#009B3A"/>
<path d="M151.477 106.37L152.449 106.46L152.791 102.59L153.583 106.55L154.465 106.64L155.923 102.86L155.599 106.73L156.553 106.82L157.058 101.168L155.635 101.06L154.177 104.822L153.385 100.862L151.981 100.736L151.477 106.37Z" fill="#009B3A"/>
<path d="M151.927 106.244L156.121 106.964L156.283 105.992L153.043 105.452L153.259 104.174L155.905 104.624L156.067 103.67L153.439 103.22L153.583 102.338L156.715 102.878L156.877 101.924L152.791 101.222L151.927 106.244Z" fill="#009B3A"/>
<path d="M151.549 105.956L152.575 106.226L153.097 104.192L155.293 104.768C156.248 105.02 157.22 104.444 157.472 103.49C157.724 102.536 157.148 101.564 156.194 101.312L153.061 100.502L151.567 105.974L151.549 105.956ZM153.349 103.166L155.473 103.706C155.87 103.814 156.266 103.58 156.356 103.184C156.464 102.788 156.23 102.392 155.834 102.302L153.709 101.762L153.349 103.166Z" fill="#009B3A"/>
<path d="M156.176 107.27C156.428 106.496 156.95 104.804 155.798 104.444L154.339 103.976C156.032 104.516 155.509 106.208 155.257 106.982" fill="black"/>
<path d="M154.015 106.604C155.33 107.09 156.842 106.316 157.4 104.84C157.94 103.382 157.328 101.78 155.996 101.294C154.681 100.808 153.169 101.582 152.611 103.058C152.071 104.516 152.683 106.118 154.015 106.604ZM154.375 105.614C155.15 105.902 156.05 105.398 156.41 104.48C156.752 103.562 156.41 102.572 155.636 102.284C154.861 101.996 153.961 102.5 153.601 103.436C153.259 104.354 153.601 105.344 154.375 105.632" fill="#009B3A"/>
<path d="M155.203 104.894L157.166 105.758L157.49 105.02L155.527 104.156L155.203 104.894Z" fill="black"/>
<path d="M155.617 107.288L156.355 107.612L157.489 105.02L156.751 104.696L155.617 107.288Z" fill="black"/>
<path d="M156.049 107.612C156.409 106.892 157.201 105.29 156.121 104.75L154.753 104.066C156.355 104.858 155.545 106.46 155.185 107.18" fill="black"/>
<path d="M151.801 105.344L156.247 107.846L156.751 106.928L153.169 104.912L153.889 103.634L156.697 105.236L157.183 104.39L154.357 102.788L154.915 101.798L158.299 103.724L158.822 102.806L154.591 100.412L151.801 105.344Z" fill="#009B3A"/>
<path d="M153.907 104.408C153.601 104.894 153.907 105.416 154.591 105.848C155.275 106.28 155.743 106.262 155.941 105.956C156.553 104.984 152.971 103.562 154.087 101.87C155.041 100.412 156.661 101.546 157.273 101.942C157.885 102.338 158.876 103.346 158.101 104.516L157.057 103.85C157.381 103.346 157.021 102.842 156.481 102.5C155.959 102.158 155.527 102.014 155.203 102.5C154.681 103.292 158.191 104.786 157.111 106.478C156.319 107.72 154.933 107.18 154.015 106.586C153.223 106.082 152.053 104.912 152.827 103.724L153.907 104.408Z" fill="#009B3A"/>
<path d="M154.015 104.408C153.691 104.876 153.961 105.416 154.627 105.884C155.293 106.352 155.744 106.37 155.96 106.064C156.626 105.128 153.133 103.526 154.321 101.888C155.347 100.484 156.914 101.708 157.508 102.122C158.102 102.536 159.038 103.616 158.21 104.732L157.202 104.012C157.562 103.526 157.22 103.004 156.698 102.626C156.194 102.266 155.762 102.086 155.419 102.572C154.843 103.328 158.282 105.002 157.112 106.64C156.248 107.846 154.897 107.234 154.015 106.586C153.259 106.046 152.143 104.804 152.971 103.652L154.015 104.39V104.408Z" fill="#009B3A"/>
<path d="M154.015 106.604C155.113 107.486 156.805 107.198 157.777 105.974C158.749 104.75 158.641 103.04 157.543 102.176C156.445 101.294 154.753 101.582 153.781 102.806C152.809 104.03 152.917 105.74 154.015 106.604ZM154.663 105.776C155.311 106.298 156.337 106.082 156.949 105.308C157.561 104.534 157.525 103.49 156.877 102.986C156.229 102.464 155.203 102.68 154.591 103.454C153.979 104.228 154.015 105.272 154.663 105.776Z" fill="#009B3A"/>
<path d="M139.453 111.77L138.661 114.2L139.867 114.596" fill="black"/>
<path d="M139.453 111.77L140.245 114.2L139.039 114.596" fill="white"/>
<path d="M141.883 113.534H139.327V114.812" fill="white"/>
<path d="M141.883 113.534L139.813 115.028L139.057 114.002" fill="white"/>
<path d="M137.041 113.534L139.111 115.028L139.867 114.002" fill="white"/>
<path d="M137.041 113.534H139.597V114.812" fill="white"/>
<path d="M140.947 116.378L140.155 113.948L138.949 114.344" fill="white"/>
<path d="M140.947 116.378L138.877 114.884L139.633 113.858" fill="white"/>
<path d="M137.959 116.378L140.029 114.884L139.273 113.858" fill="white"/>
<path d="M137.959 116.378L138.751 113.948L139.957 114.344" fill="white"/>
<path d="M144.709 136.772L143.917 139.202L145.123 139.598" fill="black"/>
<path d="M144.709 136.772L145.501 139.202L144.295 139.598" fill="white"/>
<path d="M147.139 138.536H144.583V139.814" fill="white"/>
<path d="M147.139 138.536L145.069 140.03L144.313 139.004" fill="white"/>
<path d="M142.297 138.536L144.367 140.03L145.123 139.004" fill="white"/>
<path d="M142.297 138.536H144.853V139.814" fill="white"/>
<path d="M146.221 141.38L145.429 138.95L144.223 139.346" fill="white"/>
<path d="M146.221 141.38L144.151 139.886L144.907 138.86" fill="white"/>
<path d="M143.215 141.38L145.285 139.886L144.529 138.86" fill="white"/>
<path d="M143.215 141.38L144.007 138.95L145.213 139.346" fill="white"/>
<path d="M137.437 142.55L136.789 144.566L137.797 144.89" fill="black"/>
<path d="M137.437 142.55L138.085 144.566L137.077 144.89" fill="white"/>
<path d="M139.453 144.008H137.329V145.07" fill="white"/>
<path d="M139.453 144.008L137.743 145.25L137.113 144.386" fill="white"/>
<path d="M135.421 144.008L137.131 145.25L137.761 144.386" fill="white"/>
<path d="M135.421 144.008H137.545V145.07" fill="white"/>
<path d="M138.679 146.384L138.031 144.368L137.023 144.692" fill="white"/>
<path d="M138.679 146.384L136.969 145.142L137.599 144.278" fill="white"/>
<path d="M136.177 146.384L137.887 145.142L137.257 144.278" fill="white"/>
<path d="M136.177 146.384L136.825 144.368L137.833 144.692" fill="white"/>
<path d="M150.541 134.468L150.163 135.62L150.739 135.8" fill="black"/>
<path d="M150.541 134.468L150.919 135.62L150.343 135.8" fill="white"/>
<path d="M151.693 135.314H150.487V135.926" fill="white"/>
<path d="M151.693 135.314L150.703 136.034L150.343 135.548" fill="white"/>
<path d="M149.389 135.314L150.379 136.034L150.739 135.548" fill="white"/>
<path d="M149.389 135.314H150.595V135.926" fill="white"/>
<path d="M151.261 136.664L150.883 135.512L150.307 135.692" fill="white"/>
<path d="M151.261 136.664L150.271 135.944L150.631 135.458" fill="white"/>
<path d="M149.821 136.664L150.811 135.944L150.451 135.458" fill="white"/>
<path d="M149.821 136.664L150.199 135.512L150.775 135.692" fill="white"/>
<path d="M157.093 143.108L156.445 145.124L157.453 145.448" fill="black"/>
<path d="M157.093 143.108L157.741 145.124L156.733 145.448" fill="white"/>
<path d="M159.11 144.584H156.985V145.646" fill="white"/>
<path d="M159.11 144.584L157.4 145.826L156.77 144.962" fill="white"/>
<path d="M155.077 144.584L156.787 145.826L157.417 144.962" fill="white"/>
<path d="M155.077 144.584H157.201V145.646" fill="white"/>
<path d="M158.335 146.942L157.687 144.926L156.679 145.25" fill="white"/>
<path d="M158.336 146.942L156.625 145.7L157.255 144.836" fill="white"/>
<path d="M155.851 146.942L157.561 145.7L156.931 144.836" fill="white"/>
<path d="M155.851 146.942L156.499 144.926L157.507 145.25" fill="white"/>
<path d="M155.311 149.444L154.789 151.064L155.599 151.334" fill="black"/>
<path d="M155.311 149.444L155.833 151.064L155.023 151.334" fill="white"/>
<path d="M156.932 150.614H155.24V151.46" fill="white"/>
<path d="M156.931 150.614L155.563 151.604L155.059 150.92" fill="white"/>
<path d="M153.691 150.614L155.059 151.604L155.563 150.92" fill="white"/>
<path d="M153.691 150.614H155.383V151.46" fill="white"/>
<path d="M156.319 152.504L155.797 150.884L154.987 151.154" fill="white"/>
<path d="M156.319 152.504L154.951 151.514L155.455 150.83" fill="white"/>
<path d="M154.321 152.504L155.689 151.514L155.185 150.83" fill="white"/>
<path d="M154.321 152.504L154.843 150.884L155.653 151.154" fill="white"/>
<path d="M206.45 104.012L205.658 106.442L206.864 106.838" fill="black"/>
<path d="M206.45 104.012L207.242 106.442L206.036 106.838" fill="white"/>
<path d="M208.88 105.776H206.324V107.054" fill="white"/>
<path d="M208.88 105.776L206.81 107.27L206.054 106.244" fill="white"/>
<path d="M204.02 105.776L206.09 107.27L206.846 106.244" fill="white"/>
<path d="M204.02 105.776H206.576V107.054" fill="white"/>
<path d="M207.944 108.62L207.152 106.19L205.946 106.586" fill="white"/>
<path d="M207.944 108.62L205.874 107.126L206.63 106.1" fill="white"/>
<path d="M204.956 108.62L207.026 107.126L206.27 106.1" fill="white"/>
<path d="M204.956 108.62L205.748 106.19L206.954 106.586" fill="white"/>
<path d="M229.671 143.324L228.879 145.754L230.085 146.15" fill="black"/>
<path d="M229.671 143.324L230.463 145.754L229.257 146.15" fill="white"/>
<path d="M232.101 145.088H229.545V146.366" fill="white"/>
<path d="M232.101 145.088L230.031 146.582L229.275 145.556" fill="white"/>
<path d="M227.259 145.088L229.329 146.582L230.085 145.556" fill="white"/>
<path d="M227.259 145.088H229.815V146.366" fill="white"/>
<path d="M231.165 147.932L230.373 145.502L229.167 145.898" fill="white"/>
<path d="M231.165 147.932L229.095 146.438L229.851 145.412" fill="white"/>
<path d="M228.177 147.932L230.247 146.438L229.491 145.412" fill="white"/>
<path d="M228.177 147.932L228.969 145.502L230.175 145.898" fill="white"/>
<path d="M237.933 144.746L237.411 146.366L238.221 146.636" fill="black"/>
<path d="M237.933 144.746L238.455 146.366L237.645 146.636" fill="white"/>
<path d="M239.535 145.916H237.843V146.762" fill="white"/>
<path d="M239.535 145.916L238.167 146.906L237.663 146.222" fill="white"/>
<path d="M236.313 145.916L237.681 146.906L238.185 146.222" fill="white"/>
<path d="M236.313 145.916H238.005V146.762" fill="white"/>
<path d="M238.923 147.824L238.401 146.204L237.591 146.474" fill="white"/>
<path d="M238.923 147.824L237.555 146.834L238.059 146.15" fill="white"/>
<path d="M236.925 147.824L238.293 146.834L237.789 146.15" fill="white"/>
<path d="M236.925 147.824L237.447 146.204L238.257 146.474" fill="white"/>
<path d="M232.101 149.012L231.453 151.028L232.461 151.352" fill="black"/>
<path d="M232.101 149.012L232.749 151.028L231.741 151.352" fill="white"/>
<path d="M234.117 150.488H231.993V151.55" fill="white"/>
<path d="M234.117 150.488L232.407 151.73L231.777 150.866" fill="white"/>
<path d="M230.085 150.488L231.795 151.73L232.425 150.866" fill="white"/>
<path d="M230.085 150.488H232.209V151.55" fill="white"/>
<path d="M233.343 152.864L232.695 150.848L231.687 151.172" fill="white"/>
<path d="M233.343 152.864L231.633 151.622L232.263 150.758" fill="white"/>
<path d="M230.859 152.864L232.569 151.622L231.939 150.758" fill="white"/>
<path d="M230.859 152.864L231.507 150.848L232.515 151.172" fill="white"/>
<path d="M217.772 161.469L217.124 163.485L218.132 163.809" fill="black"/>
<path d="M217.772 161.469L218.42 163.485L217.412 163.809" fill="white"/>
<path d="M219.806 162.945H217.682V164.007" fill="white"/>
<path d="M219.806 162.945L218.096 164.187L217.466 163.323" fill="white"/>
<path d="M215.756 162.945L217.466 164.187L218.096 163.323" fill="white"/>
<path d="M215.756 162.945H217.88V164.007" fill="white"/>
<path d="M219.032 165.321L218.384 163.305L217.376 163.629" fill="white"/>
<path d="M219.032 165.321L217.322 164.079L217.952 163.215" fill="white"/>
<path d="M216.53 165.321L218.24 164.079L217.61 163.215" fill="white"/>
<path d="M216.53 165.321L217.178 163.305L218.186 163.629" fill="white"/>
<path d="M217.7 167.895L217.178 169.515L217.988 169.785" fill="black"/>
<path d="M217.7 167.895L218.222 169.515L217.412 169.785" fill="white"/>
<path d="M219.32 169.065H217.628V169.911" fill="white"/>
<path d="M219.32 169.065L217.952 170.055L217.448 169.371" fill="white"/>
<path d="M216.08 169.065L217.448 170.055L217.952 169.371" fill="white"/>
<path d="M216.08 169.065H217.772V169.911" fill="white"/>
<path d="M218.69 170.955L218.168 169.335L217.358 169.605" fill="white"/>
<path d="M218.69 170.955L217.322 169.965L217.826 169.281" fill="white"/>
<path d="M216.692 170.955L218.06 169.965L217.556 169.281" fill="white"/>
<path d="M216.692 170.955L217.214 169.335L218.024 169.605" fill="white"/>
<path d="M223.694 157.203L223.172 158.823L223.982 159.093" fill="black"/>
<path d="M223.694 157.203L224.217 158.823L223.406 159.093" fill="white"/>
<path d="M225.297 158.373H223.604V159.219" fill="white"/>
<path d="M225.297 158.373L223.929 159.363L223.424 158.679" fill="white"/>
<path d="M222.074 158.373L223.442 159.363L223.946 158.679" fill="white"/>
<path d="M222.074 158.373H223.766V159.219" fill="white"/>
<path d="M224.684 160.281L224.162 158.661L223.352 158.931" fill="white"/>
<path d="M224.685 160.281L223.317 159.291L223.821 158.607" fill="white"/>
<path d="M222.687 160.281L224.055 159.291L223.551 158.607" fill="white"/>
<path d="M222.687 160.281L223.209 158.661L224.019 158.931" fill="white"/>
<path d="M228.465 153.782L227.817 155.799L228.825 156.123" fill="black"/>
<path d="M228.465 153.782L229.113 155.799L228.105 156.123" fill="white"/>
<path d="M230.481 155.259H228.357V156.321" fill="white"/>
<path d="M230.481 155.259L228.771 156.501L228.141 155.637" fill="white"/>
<path d="M226.449 155.259L228.159 156.501L228.789 155.637" fill="white"/>
<path d="M226.449 155.259H228.573V156.321" fill="white"/>
<path d="M229.707 157.635L229.059 155.619L228.051 155.943" fill="white"/>
<path d="M229.707 157.635L227.997 156.393L228.627 155.529" fill="white"/>
<path d="M227.205 157.635L228.915 156.393L228.285 155.529" fill="white"/>
<path d="M227.205 157.635L227.853 155.619L228.861 155.943" fill="white"/>
<path d="M217.538 156.069L217.016 157.689L217.826 157.959" fill="black"/>
<path d="M217.538 156.069L218.06 157.689L217.25 157.959" fill="white"/>
<path d="M219.158 157.257H217.466V158.103" fill="white"/>
<path d="M219.158 157.257L217.79 158.247L217.286 157.563" fill="white"/>
<path d="M215.918 157.257L217.286 158.247L217.79 157.563" fill="white"/>
<path d="M215.918 157.257H217.61V158.103" fill="white"/>
<path d="M218.528 159.147L218.006 157.527L217.196 157.797" fill="white"/>
<path d="M218.528 159.147L217.16 158.157L217.664 157.473" fill="white"/>
<path d="M216.53 159.147L217.898 158.157L217.394 157.473" fill="white"/>
<path d="M216.53 159.147L217.052 157.527L217.862 157.797" fill="white"/>
<path d="M165.356 125.306L164.708 127.322L165.716 127.646" fill="black"/>
<path d="M165.356 125.306L166.004 127.322L164.996 127.646" fill="white"/>
<path d="M167.372 126.782H165.248V127.844" fill="white"/>
<path d="M167.372 126.782L165.662 128.024L165.032 127.16" fill="white"/>
<path d="M163.322 126.782L165.032 128.024L165.662 127.16" fill="white"/>
<path d="M163.322 126.782H165.446V127.844" fill="white"/>
<path d="M166.598 129.158L165.95 127.142L164.942 127.466" fill="white"/>
<path d="M166.598 129.158L164.888 127.916L165.518 127.052" fill="white"/>
<path d="M164.096 129.158L165.806 127.916L165.176 127.052" fill="white"/>
<path d="M164.096 129.158L164.744 127.142L165.752 127.466" fill="white"/>
<path d="M204.182 120.32L203.66 121.94L204.47 122.21" fill="black"/>
<path d="M204.182 120.32L204.704 121.94L203.894 122.21" fill="white"/>
<path d="M205.802 121.49H204.11V122.336" fill="white"/>
<path d="M205.802 121.49L204.434 122.48L203.93 121.796" fill="white"/>
<path d="M202.562 121.49L203.93 122.48L204.434 121.796" fill="white"/>
<path d="M202.562 121.49H204.254V122.336" fill="white"/>
<path d="M205.19 123.38L204.668 121.76L203.858 122.03" fill="white"/>
<path d="M205.19 123.38L203.822 122.39L204.326 121.706" fill="white"/>
<path d="M203.192 123.38L204.56 122.39L204.056 121.706" fill="white"/>
<path d="M203.192 123.38L203.714 121.76L204.524 122.03" fill="white"/>
<path d="M188 149.156L187.208 151.586L188.414 151.982" fill="black"/>
<path d="M188 149.156L188.792 151.586L187.586 151.982" fill="white"/>
<path d="M190.43 150.92H187.874V152.198" fill="white"/>
<path d="M190.43 150.92L188.36 152.414L187.604 151.388" fill="white"/>
<path d="M185.588 150.92L187.658 152.414L188.414 151.388" fill="white"/>
<path d="M185.588 150.92H188.144V152.198" fill="white"/>
<path d="M189.494 153.765L188.702 151.334L187.496 151.73" fill="white"/>
<path d="M189.494 153.764L187.424 152.27L188.18 151.244" fill="white"/>
<path d="M186.506 153.764L188.576 152.27L187.82 151.244" fill="white"/>
<path d="M186.506 153.765L187.298 151.334L188.504 151.73" fill="white"/>
<path d="M194.876 137.762L194.228 139.778L195.236 140.102" fill="black"/>
<path d="M194.876 137.762L195.524 139.778L194.516 140.102" fill="white"/>
<path d="M196.91 139.238H194.786V140.3" fill="white"/>
<path d="M196.91 139.238L195.2 140.48L194.57 139.616" fill="white"/>
<path d="M192.86 139.238L194.57 140.48L195.2 139.616" fill="white"/>
<path d="M192.86 139.238H194.984V140.3" fill="white"/>
<path d="M196.136 141.614L195.488 139.598L194.48 139.922" fill="white"/>
<path d="M196.136 141.614L194.426 140.372L195.056 139.508" fill="white"/>
<path d="M193.634 141.614L195.344 140.372L194.714 139.508" fill="white"/>
<path d="M193.634 141.614L194.282 139.598L195.29 139.922" fill="white"/>
<path d="M188 132.434L187.352 134.45L188.36 134.774" fill="black"/>
<path d="M188 132.434L188.648 134.45L187.64 134.774" fill="white"/>
<path d="M190.016 133.892H187.892V134.954" fill="white"/>
<path d="M190.016 133.892L188.306 135.134L187.676 134.27" fill="white"/>
<path d="M185.984 133.892L187.694 135.134L188.324 134.27" fill="white"/>
<path d="M185.984 133.892H188.108V134.954" fill="white"/>
<path d="M189.26 136.268L188.612 134.252L187.604 134.576" fill="white"/>
<path d="M189.26 136.268L187.55 135.026L188.18 134.162" fill="white"/>
<path d="M186.758 136.268L188.468 135.026L187.838 134.162" fill="white"/>
<path d="M186.758 136.268L187.406 134.252L188.414 134.576" fill="white"/>
<path d="M182.024 138.194L181.502 139.814L182.312 140.084" fill="black"/>
<path d="M182.024 138.194L182.546 139.814L181.736 140.084" fill="white"/>
<path d="M183.626 139.364H181.934V140.21" fill="white"/>
<path d="M183.626 139.364L182.258 140.354L181.754 139.67" fill="white"/>
<path d="M180.404 139.364L181.772 140.354L182.276 139.67" fill="white"/>
<path d="M180.404 139.364H182.096V140.21" fill="white"/>
<path d="M183.014 141.272L182.492 139.652L181.682 139.922" fill="white"/>
<path d="M183.014 141.272L181.646 140.282L182.15 139.598" fill="white"/>
<path d="M181.016 141.272L182.384 140.282L181.88 139.598" fill="white"/>
<path d="M181.016 141.272L181.538 139.652L182.348 139.922" fill="white"/>
<path d="M185.012 142.802L184.634 143.954L185.21 144.134" fill="black"/>
<path d="M185.012 142.802L185.39 143.954L184.814 144.134" fill="white"/>
<path d="M186.164 143.648H184.958V144.26" fill="white"/>
<path d="M186.164 143.648L185.174 144.368L184.814 143.882" fill="white"/>
<path d="M183.86 143.648L184.85 144.368L185.21 143.882" fill="white"/>
<path d="M183.86 143.648H185.066V144.26" fill="white"/>
<path d="M185.732 144.998L185.354 143.846L184.778 144.026" fill="white"/>
<path d="M185.732 144.998L184.742 144.278L185.102 143.792" fill="white"/>
<path d="M184.292 144.998L185.282 144.278L184.922 143.792" fill="white"/>
<path d="M184.292 144.998L184.67 143.846L185.246 144.026" fill="white"/>
<path d="M205.802 162.927L205.154 164.943L206.162 165.267" fill="black"/>
<path d="M205.802 162.927L206.45 164.943L205.442 165.267" fill="white"/>
<path d="M207.818 164.403H205.694V165.465" fill="white"/>
<path d="M207.818 164.403L206.108 165.645L205.478 164.781" fill="white"/>
<path d="M203.786 164.403L205.496 165.645L206.126 164.781" fill="white"/>
<path d="M203.786 164.403H205.91V165.465" fill="white"/>
<path d="M207.062 166.779L206.414 164.763L205.406 165.087" fill="white"/>
<path d="M207.062 166.779L205.352 165.537L205.982 164.673" fill="white"/>
<path d="M204.56 166.779L206.27 165.537L205.64 164.673" fill="white"/>
<path d="M204.56 166.779L205.208 164.763L206.216 165.087" fill="white"/>
<path d="M210.896 158.103L210.374 159.723L211.184 159.993" fill="black"/>
<path d="M210.896 158.103L211.418 159.723L210.608 159.993" fill="white"/>
<path d="M212.516 159.273H210.824V160.119" fill="white"/>
<path d="M212.516 159.273L211.148 160.263L210.644 159.579" fill="white"/>
<path d="M209.294 159.273L210.662 160.263L211.166 159.579" fill="white"/>
<path d="M209.294 159.273H210.986V160.119" fill="white"/>
<path d="M211.904 161.163L211.382 159.543L210.572 159.813" fill="white"/>
<path d="M211.904 161.163L210.536 160.173L211.04 159.489" fill="white"/>
<path d="M209.906 161.163L211.274 160.173L210.77 159.489" fill="white"/>
<path d="M209.906 161.163L210.428 159.543L211.238 159.813" fill="white"/>
<path d="M201.104 156.645L200.582 158.265L201.392 158.535" fill="black"/>
<path d="M201.104 156.645L201.626 158.265L200.816 158.535" fill="white"/>
<path d="M202.724 157.815H201.032V158.661" fill="white"/>
<path d="M202.724 157.815L201.356 158.805L200.852 158.121" fill="white"/>
<path d="M199.502 157.815L200.87 158.805L201.374 158.121" fill="white"/>
<path d="M199.502 157.815H201.194V158.661" fill="white"/>
<path d="M202.112 159.723L201.59 158.103L200.78 158.373" fill="white"/>
<path d="M202.112 159.723L200.744 158.733L201.248 158.049" fill="white"/>
<path d="M200.114 159.723L201.482 158.733L200.978 158.049" fill="white"/>
<path d="M200.114 159.723L200.636 158.103L201.446 158.373" fill="white"/>
<path d="M164.132 154.016L163.34 156.447L164.546 156.843" fill="black"/>
<path d="M164.132 154.016L164.924 156.447L163.718 156.843" fill="white"/>
<path d="M166.562 155.781H164.006V157.059" fill="white"/>
<path d="M166.562 155.781L164.492 157.275L163.736 156.249" fill="white"/>
<path d="M161.719 155.781L163.79 157.275L164.546 156.249" fill="white"/>
<path d="M161.719 155.781H164.276V157.059" fill="white"/>
<path d="M165.626 158.625L164.834 156.195L163.628 156.591" fill="white"/>
<path d="M165.626 158.625L163.556 157.131L164.312 156.105" fill="white"/>
<path d="M162.638 158.625L164.708 157.131L163.952 156.105" fill="white"/>
<path d="M162.638 158.625L163.43 156.195L164.636 156.591" fill="white"/>
<path d="M188 170.685L187.73 171.495L188.126 171.621" fill="black"/>
<path d="M188 170.685L188.27 171.495L187.874 171.621" fill="white"/>
<path d="M188.81 171.261H187.964V171.693" fill="white"/>
<path d="M188.81 171.261L188.126 171.765L187.874 171.423" fill="white"/>
<path d="M187.19 171.261L187.874 171.765L188.126 171.423" fill="white"/>
<path d="M187.19 171.261H188.036V171.693" fill="white"/>
<path d="M188.504 172.215L188.234 171.405L187.838 171.531" fill="white"/>
<path d="M188.504 172.215L187.82 171.711L188.072 171.369" fill="white"/>
<path d="M187.496 172.215L188.18 171.711L187.928 171.369" fill="white"/>
<path d="M187.496 172.215L187.766 171.405L188.162 171.531" fill="white"/>
</svg>
